<svg width="360" height="56" viewBox="0 0 360 56" fill="none" xmlns="http://www.w3.org/2000/svg">
<path d="M297.97 42.7152L297.264 1.66113H310V53.4052H291.689L278.982 10.9398H278.708L279.413 53.4052H266.76V1.66113H285.863L297.685 42.7152H297.97Z" fill="white"/>
<path d="M66.4796 6.50606L59.4343 53.9497H45.5459L55.0836 1.66113H77.9631L87.4571 53.9497H73.6233L66.7693 6.50606H66.4796Z" fill="white"/>
<path d="M119.803 53.9497L111.2 6.93943H110.922L110.599 53.9497H97.7163L98.8532 1.66113H119.842L126.193 41.6318H126.466L132.823 1.66113H153.8L154.915 53.9497H142.06L141.721 6.93943H141.453L132.855 53.9497H119.803Z" fill="white"/>
<path d="M23.8852 39.1983C24.3881 40.4651 24.235 42.0931 24 43.0765C23.5682 44.8156 22.4095 46.588 18.9879 46.588C15.7632 46.588 13.8064 44.71 13.8064 41.8375V36.7759H0.010947L0 40.8263C0 52.483 9.02939 56 18.7037 56C28.0064 56 35.6693 52.7663 36.8882 44.0544C37.5113 39.5373 37.0467 36.5814 36.8335 35.4646C34.6636 24.5191 15.1401 21.2521 13.6862 15.1293C13.4402 14.0792 13.5113 12.968 13.6315 12.3734C13.9868 10.7066 15.1127 8.86755 18.332 8.86755C21.3382 8.86755 23.1146 10.7566 23.1146 13.6125C23.1146 14.5737 23.1146 16.8406 23.1146 16.8406H35.9426V13.168C35.9426 1.77795 25.8857 0 18.5999 0C9.45024 0 1.97313 3.07253 0.606703 11.5845C0.235035 13.9347 0.180376 16.0294 0.72148 18.6518C2.9679 29.3362 21.2398 32.431 23.8852 39.1983Z" fill="white"/>
<path d="M191.147 39.1035C191.656 40.3592 191.492 41.9427 191.262 42.9261C190.841 44.6596 189.694 46.4043 186.294 46.4043C183.113 46.4043 181.172 44.5263 181.172 41.7205L181.162 36.7033H167.508L167.492 40.6981C167.492 52.2382 176.439 55.7218 186.015 55.7218C195.219 55.7218 202.811 52.5326 204.008 43.8985C204.631 39.4147 204.189 36.4977 203.964 35.4032C201.806 24.5576 182.479 21.324 181.041 15.2623C180.795 14.2177 180.866 13.1176 180.992 12.5565C181.358 10.8785 182.462 9.08389 185.649 9.08389C188.628 9.08389 190.366 10.9285 190.366 13.7621C190.366 14.7122 190.366 16.9569 190.366 16.9569H203.095V13.3232C203.095 2.05542 193.12 0.288574 185.906 0.288574C176.86 0.288574 169.443 3.32221 168.104 11.773C167.732 14.0899 167.694 16.1457 168.224 18.7571C170.438 29.3303 188.529 32.4029 191.147 39.1035Z" fill="white"/>
<path d="M234.354 46.1264C237.923 46.1264 239.038 43.6151 239.284 42.3316C239.388 41.7649 239.415 41.0092 239.404 40.3314V1.63867H252.413V39.1479C252.44 40.1092 252.347 42.0871 252.303 42.5816C251.391 52.3437 243.799 55.5107 234.349 55.5107C224.887 55.5107 217.29 52.3437 216.388 42.5816C216.344 42.0871 216.252 40.1092 216.279 39.1479V1.63867H229.276V40.3314C229.276 41.0092 229.298 41.7704 229.397 42.3316C229.675 43.6151 230.758 46.1264 234.354 46.1264Z" fill="white"/>
<path d="M341.657 45.5765C345.385 45.5765 346.685 43.1818 346.926 41.7872C347.019 41.1872 347.046 40.4593 347.041 39.7981V32.2085H341.761V24.5744H360V38.6091C359.989 39.587 359.967 40.3093 359.814 42.0539C358.956 51.566 350.839 54.9608 341.723 54.9608C332.589 54.9608 324.484 51.566 323.615 42.0539C323.467 40.3093 323.445 39.587 323.429 38.6091L323.44 16.5903C323.44 15.6624 323.554 14.0178 323.653 13.1455C324.795 3.3723 332.589 0.227539 341.723 0.227539C350.845 0.227539 358.83 3.35563 359.776 13.1455C359.945 14.8123 359.891 16.5903 359.891 16.5903V18.3349H346.92V15.4068C346.931 15.4124 346.904 14.1623 346.751 13.4177C346.532 12.2621 345.543 9.60625 341.624 9.60625C337.875 9.60625 336.776 12.1176 336.503 13.4177C336.344 14.1067 336.284 15.0401 336.284 15.8846V39.7981C336.273 40.4593 336.311 41.1872 336.415 41.7872C336.639 43.1874 337.935 45.5765 341.657 45.5765Z" fill="white"/>
</svg>
