<svg width="280" height="56" viewBox="0 0 280 56" fill="none" xmlns="http://www.w3.org/2000/svg">
<g clip-path="url(#clip0_37_11)">
<path d="M115.986 44.6706H108.684L101.564 19.0205L94.3648 44.6706H86.9012L77.1108 11.3305H83.7341L90.7942 37.8503L98.5019 11.3305H105.192L112.437 38.0077L119.142 11.3305H125.537L115.986 44.6706Z" fill="white"/>
<path d="M134.898 13.7694C134.898 14.6707 134.548 15.4218 133.846 16.0227C133.161 16.6236 132.325 16.924 131.34 16.924C130.354 16.924 129.518 16.6236 128.833 16.0227C128.148 15.4218 127.806 14.6707 127.806 13.7694C127.806 12.8522 128.148 12.0854 128.833 11.4686C129.535 10.8519 130.37 10.5435 131.34 10.5435C132.359 10.5435 133.203 10.8598 133.871 11.4923C134.556 12.1248 134.898 12.8839 134.898 13.7694ZM128.293 44.6695V20.6426H134.211V44.6695H128.293Z" fill="white"/>
<path d="M156.991 44.6706V31.293C156.991 27.7879 155.842 24.7643 152.111 24.7643C148.4 24.7643 146.046 27.9273 146.046 31.127V44.6701H140.256V20.6432H146.046V24.0417H146.146C148.068 21.2265 150.841 20.238 154.467 20.238C157.191 20.238 159.296 20.8724 160.783 22.5169C162.287 24.1614 162.947 26.6598 162.947 30.0122V44.6696L156.991 44.6706Z" fill="white"/>
<path d="M186.064 44.6706V41.5776H185.963C184.125 44.503 180.374 45.1775 177.758 45.1775C169.984 45.1775 167.131 39.4624 167.131 33.3806C167.131 29.3483 168.192 26.1225 170.314 23.7032C172.453 21.268 175.31 20.214 178.886 20.214C184.452 20.214 185.963 23.1449 185.963 23.1449H186.064V9.23993H192.069V44.6709L186.064 44.6706ZM186.114 30.9794C186.114 28.077 184.143 24.7794 179.983 24.7794C175.225 24.7794 173.376 28.6982 173.376 33.2149C173.376 37.1582 175.121 40.7372 179.652 40.7966C184.095 40.7966 186.078 36.7888 186.114 33.4758V30.9794Z" fill="white"/>
<path d="M222.366 32.5509C222.366 40.8734 217.11 45.3817 209.217 45.3817C200.634 45.3817 196.235 40.5191 196.235 33.0725C196.235 24.5534 201.507 20.1222 209.844 20.1222C217.483 20.1222 222.366 24.7435 222.366 32.5509ZM216.2 32.7406C216.2 29.0379 214.813 24.922 209.518 24.922C204.439 24.922 202.465 28.4991 202.465 32.8829C202.465 37.6453 204.835 40.6744 209.482 40.6744C214.459 40.6744 216.164 37.0591 216.2 32.7406Z" fill="white"/>
<path d="M254.134 44.6706H247.602L242.608 27.2814L237.252 44.6706H230.912L223.526 20.7173H229.724L234.548 39.3265L240.185 20.7173H245.999L251.025 39.2782L255.727 20.7173H261.408L254.134 44.6706Z" fill="white"/>
<path d="M280 37.9824C280 43.3317 274.874 45.4167 269.736 45.4167C266.39 45.4167 263.058 44.1968 263.058 44.1968V38.5069C263.058 38.5069 265.954 40.8956 270 40.9254C272.774 40.9254 274.023 40.0976 274.023 38.5216C274.091 37.2573 273.278 36.5601 272.306 36.0374C271.637 35.6579 270.593 35.1914 269.173 34.6379C267.502 33.958 266.257 33.3018 265.438 32.6692C264.636 32.0367 264.035 31.2936 263.634 30.4397C263.25 29.5858 262.966 28.6474 262.966 27.5089C262.966 23.1894 266.772 20.1375 272.857 20.1375C276.879 20.1375 278.622 21.0707 278.622 21.0707V26.476C278.622 26.476 275.764 24.6067 272.794 24.5897C270.666 24.5897 269.057 25.3228 269.029 26.982C269.014 29.1206 271.781 30.163 273.433 30.7957C275.84 31.7128 277.6 32.6919 278.586 33.8146C279.572 34.9373 280 36.0676 280 37.9824Z" fill="white"/>
<path d="M28.0467 -0.00012207H0V26.5426H28.0467V-0.00012207Z" fill="white"/>
<path d="M59.1708 0H31.124V26.5428H59.1708V0Z" fill="white"/>
<path d="M28.0467 29.4572H0V56H28.0467V29.4572Z" fill="white"/>
<path d="M59.1708 29.4572H31.124V56H59.1708V29.4572Z" fill="white"/>
</g>
<defs>
<clipPath id="clip0_37_11">
<rect width="280" height="56" fill="white"/>
</clipPath>
</defs>
</svg>
