<svg width="167" height="56" viewBox="0 0 167 56" fill="none" xmlns="http://www.w3.org/2000/svg">
<path d="M71.0671 28.7182C71.0671 36.4913 64.9335 42.2191 57.4062 42.2191C49.8789 42.2191 43.7454 36.4913 43.7454 28.7182C43.7454 20.8904 49.8789 15.2174 57.4062 15.2174C64.9335 15.2174 71.0671 20.8904 71.0671 28.7182ZM65.087 28.7182C65.087 23.8609 61.5321 20.5374 57.4062 20.5374C53.2803 20.5374 49.7254 23.8609 49.7254 28.7182C49.7254 33.5269 53.2803 36.8991 57.4062 36.8991C61.5321 36.8991 65.087 33.5209 65.087 28.7182Z" fill="white"/>
<path d="M100.538 28.7182C100.538 36.4913 94.4042 42.2191 86.8769 42.2191C79.3496 42.2191 73.2161 36.4913 73.2161 28.7182C73.2161 20.8965 79.3496 15.2174 86.8769 15.2174C94.4042 15.2174 100.538 20.8904 100.538 28.7182ZM94.5577 28.7182C94.5577 23.8609 91.0028 20.5374 86.8769 20.5374C82.751 20.5374 79.1961 23.8609 79.1961 28.7182C79.1961 33.5269 82.751 36.8991 86.8769 36.8991C91.0028 36.8991 94.5577 33.5209 94.5577 28.7182Z" fill="white"/>
<path d="M128.78 16.033V40.2713C128.78 50.2417 122.849 54.3139 115.838 54.3139C109.238 54.3139 105.265 49.9374 103.767 46.3582L108.974 44.2095C109.901 46.4069 112.172 49 115.832 49C120.32 49 123.101 46.2548 123.101 41.0869V39.1452H122.892C121.554 40.7826 118.975 42.213 115.721 42.213C108.912 42.213 102.674 36.333 102.674 28.7669C102.674 21.1461 108.912 15.2174 115.721 15.2174C118.969 15.2174 121.548 16.6478 122.892 18.2365H123.101V16.0391H128.78V16.033ZM123.525 28.7669C123.525 24.013 120.326 20.5374 116.255 20.5374C112.129 20.5374 108.673 24.013 108.673 28.7669C108.673 33.4722 112.129 36.8991 116.255 36.8991C120.326 36.8991 123.525 33.4722 123.525 28.7669Z" fill="white"/>
<path d="M138.143 1.82608V41.3913H132.311V1.82608H138.143Z" fill="white"/>
<path d="M160.873 33.1617L165.514 36.2296C164.016 38.427 160.406 42.213 154.168 42.213C146.432 42.213 140.655 36.2843 140.655 28.7122C140.655 20.6835 146.481 15.2113 153.499 15.2113C160.566 15.2113 164.022 20.787 165.152 23.8L165.772 25.3339L147.568 32.8087C148.962 35.5174 151.129 36.8991 154.168 36.8991C157.213 36.8991 159.325 35.4139 160.873 33.1617ZM146.585 28.3043L158.754 23.2948C158.085 21.6087 156.071 20.4339 153.701 20.4339C150.662 20.4339 146.432 23.0939 146.585 28.3043Z" fill="white"/>
<path d="M21.6669 25.2061V19.4782H41.1359C41.3263 20.4765 41.4245 21.6574 41.4245 22.9356C41.4245 27.233 40.2395 32.5469 36.4207 36.333C32.7061 40.1678 27.9601 42.213 21.6731 42.213C10.0199 42.213 0.220947 32.8026 0.220947 21.2496C0.220947 9.69651 10.0199 0.286072 21.6731 0.286072C28.1198 0.286072 32.7123 2.7939 36.1628 6.06259L32.086 10.1043C29.6117 7.80346 26.2594 6.0139 21.6669 6.0139C13.1573 6.0139 6.50187 12.813 6.50187 21.2496C6.50187 29.6861 13.1573 36.4852 21.6669 36.4852C27.1865 36.4852 30.3301 34.2878 32.3439 32.2913C33.977 30.6722 35.0515 28.3591 35.4751 25.2L21.6669 25.2061Z" fill="white"/>
</svg>
