<svg width="271" height="48" viewBox="0 0 271 48" fill="none" xmlns="http://www.w3.org/2000/svg">
<g clip-path="url(#clip0_37_40)">
<path d="M206.128 2.68361V8.01777H211.304C213.564 8.01777 215.05 9.45235 215.895 10.3796C216.573 11.1432 231.478 28.1508 231.835 28.598C232.193 29.0453 232.193 29.0505 232.193 29.3342V37.7621C232.192 38.1484 232.154 38.5338 232.079 38.9126C231.973 39.1573 231.815 39.3758 231.617 39.553C231.419 39.7302 231.184 39.8617 230.93 39.9386C230.441 40.0004 229.949 40.0314 229.456 40.0314L224.275 40.0249V45.3591H253.336V40.0249H247.868C247.378 40.0273 246.889 39.996 246.404 39.9311C246.15 39.8551 245.916 39.7238 245.719 39.5467C245.521 39.3696 245.365 39.151 245.26 38.9063C245.184 38.5275 245.144 38.1421 245.142 37.7557V29.3331C245.11 29.0562 245.179 28.7771 245.337 28.5479L261.461 10.0355C262.941 8.37731 263.711 8.01669 265.651 8.01669H271V2.68253H247.049V8.00602H250.665C250.858 7.9943 251.051 8.03882 251.221 8.13423C251.39 8.22965 251.528 8.37195 251.62 8.54428C251.711 8.7166 251.751 8.91169 251.736 9.10635C251.72 9.30101 251.649 9.48706 251.532 9.64239C251.456 9.75146 241.504 21.5278 241.38 21.6424C241.255 21.757 241.174 21.7294 241.082 21.6041C240.99 21.4785 231.158 9.64242 231.158 9.64242C230.464 8.78605 231.006 8.00604 231.819 8.00604H235.342V2.68255L206.128 2.68361Z" fill="white"/>
<path d="M134.85 2.68359V8.01775H139.489C142.838 8.01775 143.067 9.89491 143.067 11.5313V36.4964C143.067 37.991 143.153 40.0419 141.017 40.0419H135.294V45.3707H159.733V40.0419H153.771C151.392 40.0419 151.283 38.9459 151.256 36.6168V15.2291L184.822 45.3707H193.359L192.909 11.3288C192.952 8.84157 193.104 8.01242 195.662 8.01242H201.011V2.68359H176.079V8.01242H181.554C184.069 8.01242 184.491 8.98885 184.524 11.3288L184.822 29.1435L155.684 2.68359H134.85Z" fill="white"/>
<path d="M24.7965 0C19.5445 0 13.5771 0.992719 8.53651 3.27272C3.83194 5.38908 3.41624e-05 8.78697 3.41624e-05 14.4215C-0.00711469 17.3723 1.10796 20.214 3.11652 22.3637C4.47695 23.6291 6.67239 25.7782 12.4067 27.0437C14.9704 27.5891 20.4501 28.4673 25.908 29.0455C31.366 29.6236 36.656 30.1366 38.8239 30.7202C40.5475 31.162 43.4468 31.7621 43.4468 35.0348C43.4468 38.3075 40.3957 39.2891 39.8645 39.5018C39.3334 39.7145 35.669 41.4055 29.0891 41.4055C24.7296 41.2837 20.4096 40.5361 16.26 39.1854C13.8047 38.3018 11.2308 37.1399 8.82975 34.1889C7.86049 32.7994 7.32261 31.1518 7.2842 29.4545H1.32219V46.255H7.94579V43.9805C7.94471 43.8117 7.98839 43.6457 8.07228 43.4996C8.15617 43.3534 8.27724 43.2325 8.42305 43.1491C8.56887 43.0658 8.73415 43.023 8.90183 43.0254C9.06952 43.0277 9.23356 43.0749 9.37705 43.1623C12.4973 44.5286 15.7429 45.5844 19.0674 46.3146C22.5471 47.0455 24.7968 47.5749 29.1219 47.5749C33.6858 47.6623 38.2342 47.016 42.5957 45.6605C45.4919 44.8614 48.2092 43.5115 50.6008 41.6836C51.9459 40.6438 53.0332 39.3042 53.7771 37.7701C54.521 36.2361 54.9013 34.5493 54.8881 32.8423C54.9111 29.5992 53.6676 26.4766 51.4254 24.147C50.1784 22.9295 48.7338 21.9354 47.154 21.2077C45.4557 20.4354 43.6926 19.8165 41.8854 19.3583C38.4491 18.5128 30.7317 17.4547 27.0407 17.0838C23.1708 16.6802 16.4552 16.1179 13.7723 15.2834C12.9593 15.027 11.3005 14.2368 11.3005 12.3004C11.3005 10.9204 12.0594 9.75295 13.5553 8.80932C15.9347 7.3093 20.7369 6.37605 25.745 6.37605C30.5926 6.31709 35.4005 7.26211 39.8698 9.15234C41.0704 9.67901 42.1995 10.3574 43.2298 11.1712C44.9093 12.6149 46.0724 14.5728 46.5411 16.745H51.8912V2.12216H45.9292V3.81818C45.9292 4.36363 45.3872 5.08388 44.3032 4.48935C41.6149 3.08208 34.0593 0.0381791 24.7965 0Z" fill="white"/>
<path d="M96.5471 0C87.1542 0 77.181 3.27233 71.5441 8.42687C69.3953 10.3959 67.6799 12.7958 66.5083 15.4722C65.3367 18.1487 64.7349 21.0423 64.7416 23.967C64.7081 26.9037 65.2975 29.8138 66.4706 32.503C67.6436 35.1922 69.3733 37.5986 71.5441 39.5614C77.6145 45.0542 86.7206 48 96.5471 48C106.39 48 115.69 45.0869 121.615 39.5614C123.721 37.5525 125.401 35.1351 126.555 32.455C127.708 29.7748 128.31 26.8875 128.324 23.967C128.353 21.0494 127.77 18.1585 126.614 15.4829C125.458 12.8072 123.755 10.4069 121.615 8.43857C115.257 2.63493 106.937 0 96.5471 0ZM96.5471 6.2397C101.685 6.2397 106.634 8.10023 109.967 11.4002C113.192 14.5966 114.877 19.113 114.877 23.9457C114.877 29.0075 113.344 33.1093 109.967 36.4911C106.59 39.873 101.756 41.6836 96.5471 41.6836C91.3764 41.6836 86.4383 39.8348 83.105 36.4911C81.5108 34.8265 80.2592 32.8612 79.4221 30.7083C78.5849 28.5553 78.1788 26.2571 78.227 23.9457C78.227 19.1348 79.891 14.602 83.105 11.4002C86.4383 8.08387 91.4089 6.2397 96.5471 6.2397Z" fill="white"/>
</g>
<defs>
<clipPath id="clip0_37_40">
<rect width="271" height="48" fill="white"/>
</clipPath>
</defs>
</svg>
