<svg width="187" height="56" viewBox="0 0 187 56" fill="none" xmlns="http://www.w3.org/2000/svg">
<g clip-path="url(#clip0_37_24)">
<path d="M115.985 43.7489C105.132 51.6866 89.3995 55.9216 75.8545 55.9216C56.8622 55.9216 39.7642 48.952 26.829 37.3601C25.8127 36.4486 26.7233 35.2063 27.9428 35.9162C41.9025 43.9748 59.163 48.8229 76.9927 48.8229C89.0174 48.8229 102.245 46.3545 114.408 41.2321C116.246 40.4577 117.782 42.426 115.985 43.7489Z" fill="white"/>
<path d="M120.498 38.6266C119.116 36.868 111.327 37.7957 107.831 38.2071C106.766 38.3362 106.603 37.4166 107.563 36.7551C113.766 32.4232 123.945 33.6736 125.132 35.1256C126.319 36.5857 124.823 46.7094 118.994 51.5414C118.099 52.2835 117.246 51.8883 117.644 50.9041C118.953 47.6613 121.888 40.3932 120.498 38.6266Z" fill="white"/>
<path d="M108.075 6.17416V1.96334C108.075 1.32606 108.563 0.898529 109.148 0.898529H128.148C128.758 0.898529 129.246 1.33413 129.246 1.96334V5.56916C129.238 6.17416 128.726 6.9647 127.815 8.21504L117.969 22.1624C121.628 22.0737 125.49 22.6141 128.807 24.4695C129.555 24.889 129.758 25.502 129.815 26.107V30.6002C129.815 31.2133 129.132 31.9312 128.417 31.5601C122.571 28.519 114.807 28.1882 108.343 31.5924C107.684 31.9473 106.993 31.2375 106.993 30.6244V26.3571C106.993 25.6714 107.002 24.5018 107.693 23.4611L119.099 7.2309H109.172C108.563 7.2309 108.075 6.80337 108.075 6.17416Z" fill="white"/>
<path d="M38.7641 32.4474H32.9835C32.4306 32.4071 31.9916 31.9957 31.9509 31.4714V2.03592C31.9509 1.44704 32.4469 0.979171 33.0648 0.979171H38.4551C39.0161 1.00336 39.4633 1.43091 39.5039 1.96331V5.81114H39.6096C41.0162 2.09238 43.6585 0.358032 47.2196 0.358032C50.8375 0.358032 53.0977 2.09238 54.7238 5.81114C56.1222 2.09238 59.3011 0.358032 62.7077 0.358032C65.1305 0.358032 67.781 1.35024 69.3989 3.57665C71.2282 6.05314 70.8542 9.65089 70.8542 12.805L70.8461 31.3826C70.8461 31.9715 70.3502 32.4474 69.7323 32.4474H63.9598C63.3825 32.4071 62.9191 31.9473 62.9191 31.3826V15.7816C62.9191 14.5393 63.0329 11.4417 62.7565 10.264C62.3256 8.28762 61.0329 7.73101 59.3581 7.73101C57.9596 7.73101 56.4962 8.65869 55.9027 10.143C55.3092 11.6272 55.3661 14.1118 55.3661 15.7816V31.3826C55.3661 31.9715 54.8701 32.4474 54.2522 32.4474H48.4798C47.8944 32.4071 47.4391 31.9473 47.4391 31.3826L47.431 15.7816C47.431 12.4984 47.9757 7.66648 43.8699 7.66648C39.7153 7.66648 39.8779 12.3774 39.8779 15.7816V31.3826C39.8779 31.9715 39.382 32.4474 38.7641 32.4474Z" fill="white"/>
<path d="M145.604 0.358032C154.181 0.358032 158.824 7.66648 158.824 16.9593C158.824 25.9376 153.694 33.0605 145.604 33.0605C137.181 33.0605 132.595 25.7521 132.595 16.6447C132.595 7.48095 137.238 0.358032 145.604 0.358032ZM145.653 6.36774C141.392 6.36774 141.124 12.1274 141.124 15.7171C141.124 19.3148 141.067 26.9943 145.604 26.9943C150.084 26.9943 150.295 20.7991 150.295 17.0239C150.295 14.5393 150.189 11.5708 149.433 9.21529C148.783 7.16635 147.49 6.36774 145.653 6.36774Z" fill="white"/>
<path d="M169.946 32.4474H164.19C163.612 32.4071 163.149 31.9473 163.149 31.3826L163.141 1.93911C163.19 1.39864 163.669 0.979171 164.255 0.979171H169.613C170.117 1.00336 170.531 1.34217 170.645 1.80198V6.3032H170.751C172.369 2.27791 174.637 0.358032 178.629 0.358032C181.223 0.358032 183.751 1.28571 185.377 3.82672C186.889 6.1822 186.889 10.143 186.889 12.9905V31.5198C186.824 32.036 186.345 32.4474 185.776 32.4474H179.979C179.45 32.4071 179.011 32.0199 178.954 31.5198V15.5315C178.954 12.3129 179.328 7.60195 175.336 7.60195C173.93 7.60195 172.637 8.53769 171.995 9.95743C171.182 11.7563 171.076 13.5471 171.076 15.5315V31.3826C171.068 31.9715 170.564 32.4474 169.946 32.4474Z" fill="white"/>
<path d="M92.9279 18.3872V17.1449C88.749 17.1449 84.3342 18.0322 84.3342 22.9207C84.3342 25.3972 85.6269 27.075 87.8465 27.075C89.4726 27.075 90.9279 26.0828 91.8466 24.4695C92.9848 22.4851 92.9279 20.6217 92.9279 18.3872ZM98.7573 32.3668C98.3752 32.7056 97.8223 32.7298 97.3914 32.5039C95.4727 30.9229 95.1312 30.1888 94.0743 28.6803C90.9035 31.8909 88.6595 32.8508 84.5456 32.8508C79.6837 32.8508 75.895 29.8742 75.895 23.9129C75.895 19.2584 78.4398 16.0882 82.0578 14.5393C85.196 13.168 89.5783 12.926 92.9279 12.5469V11.8047C92.9279 10.4414 93.0336 8.82811 92.2287 7.65037C91.5214 6.59363 90.1718 6.15802 88.9847 6.15802C86.7814 6.15802 84.8139 7.2793 84.3342 9.60251C84.2367 10.1188 83.8545 10.627 83.3342 10.6512L77.7243 10.0542C77.2528 9.94939 76.7324 9.57024 76.8625 8.85231C78.1552 2.10853 84.2936 0.0757141 89.7896 0.0757141C92.6027 0.0757141 96.2776 0.817852 98.4972 2.93133C101.31 5.53688 101.042 9.01364 101.042 12.7969V21.7349C101.042 24.4211 102.164 25.5988 103.221 27.0508C103.595 27.5671 103.676 28.1882 103.205 28.5754C102.026 29.5515 99.9281 31.3665 98.7736 32.3829L98.7573 32.3668Z" fill="white"/>
<path d="M17.1457 18.3872V17.1449C12.9667 17.1449 8.55201 18.0322 8.55201 22.9207C8.55201 25.3972 9.84472 27.075 12.0643 27.075C13.6903 27.075 15.1456 26.0828 16.0644 24.4695C17.2026 22.4851 17.1457 20.6217 17.1457 18.3872ZM22.9751 32.3668C22.593 32.7056 22.0401 32.7298 21.6092 32.5039C19.6905 30.9229 19.349 30.1888 18.2921 28.6803C15.1213 31.8909 12.8773 32.8508 8.76339 32.8508C3.90149 32.8508 0.112793 29.8742 0.112793 23.9129C0.112793 19.2584 2.65757 16.0882 6.27553 14.5393C9.41381 13.168 13.796 12.926 17.1457 12.5469V11.8047C17.1457 10.4414 17.2514 8.82811 16.4465 7.65037C15.7392 6.59363 14.3895 6.15802 13.2025 6.15802C10.9992 6.15802 9.03169 7.2793 8.55201 9.60251C8.45444 10.1188 8.07232 10.627 7.55198 10.6512L1.9421 10.0542C1.47055 9.94939 0.950209 9.57024 1.08029 8.85231C2.37301 2.10853 8.51135 0.0757141 14.0074 0.0757141C16.8205 0.0757141 20.4954 0.817852 22.7149 2.93133C25.528 5.53688 25.2597 9.01364 25.2597 12.7969V21.7349C25.2597 24.4211 26.3817 25.5988 27.4386 27.0508C27.8126 27.5671 27.8939 28.1882 27.4224 28.5754C26.2435 29.5515 24.1459 31.3665 22.9914 32.3829L22.9751 32.3668Z" fill="white"/>
</g>
<defs>
<clipPath id="clip0_37_24">
<rect width="187" height="56" fill="white"/>
</clipPath>
</defs>
</svg>
