<svg width="95" height="104" viewBox="0 0 95 104" fill="none" xmlns="http://www.w3.org/2000/svg">
<path d="M63.6873 89.3825C63.1974 89.0307 62.7706 88.559 62.4313 87.9874C62.2746 87.7238 62.1423 87.4451 62.0326 87.157H6.36704V22.3961H81.9251V64.6827C83.5381 64.8546 84.8915 66.1051 85.4598 67.8174C85.9629 67.4919 86.5237 67.2908 87.1131 67.2294C87.5118 67.1885 87.9078 67.2177 88.2919 67.3073V6.2627C88.2919 2.80937 85.9121 -0.00012207 82.9865 -0.00012207H5.30579C2.38027 -0.00012207 0 2.80937 0 6.2627V88.4099C0 91.8633 2.38027 94.6725 5.30579 94.6725H63.2037C62.7519 93.5926 62.6447 92.3735 62.9106 91.2005C63.0639 90.5259 63.3291 89.9105 63.6873 89.3825ZM76.0985 10.5164C76.0985 9.23933 76.9756 8.20381 78.0576 8.20381H80.0166C81.0988 8.20381 81.9757 9.23907 81.9757 10.5164V13.1372C81.9757 14.4143 81.0986 15.4495 80.0166 15.4495H78.0576C76.9754 15.4495 76.0985 14.4143 76.0985 13.1372V10.5164ZM66.9888 10.5164C66.9888 9.23933 67.8659 8.20381 68.9478 8.20381H70.9071C71.9893 8.20381 72.8662 9.23907 72.8662 10.5164V13.1372C72.8662 14.4143 71.9891 15.4495 70.9071 15.4495H68.9478C67.8659 15.4495 66.9888 14.4143 66.9888 13.1372V10.5164ZM57.8788 10.5164C57.8788 9.23933 58.7561 8.20381 59.8378 8.20381H61.7969C62.8791 8.20381 63.7562 9.23907 63.7562 10.5164V13.1372C63.7562 14.4143 62.8791 15.4495 61.7969 15.4495H59.8378C58.7561 15.4495 57.8788 14.4143 57.8788 13.1372V10.5164Z" fill="#2EA1FF" stroke="#2EA1FF" stroke-width="0.00800002"/>
<path d="M94.5252 84.9722L93.9365 81.0316C93.857 80.5009 93.4286 80.1464 92.9786 80.24L90.0096 80.8575C89.6532 79.8704 89.198 78.9456 88.6577 78.0993L90.597 75.3709C90.7379 75.1732 90.8066 74.9167 90.7876 74.6587C90.7683 74.4007 90.6629 74.1626 90.495 73.996L87.8984 71.4238C87.7304 71.2575 87.5127 71.1767 87.2943 71.1993C87.0757 71.2219 86.874 71.346 86.7331 71.5442L84.7957 74.2705C84.0003 73.7922 83.1495 73.4234 82.2583 73.18V69.6214C82.2583 69.0825 81.8879 68.6451 81.4314 68.6451H78.041C77.5846 68.6451 77.2141 69.0825 77.2141 69.6214V73.18C76.3223 73.4231 75.4725 73.7922 74.6767 74.2705L72.7388 71.5444C72.4452 71.1315 71.9238 71.0778 71.5737 71.4241L68.9769 73.996C68.8089 74.1626 68.7038 74.4007 68.6845 74.6587C68.6655 74.9167 68.734 75.1734 68.8749 75.3717L70.8144 78.0996C70.275 78.9456 69.8189 79.8709 69.4625 80.8578L66.4935 80.24C66.0446 80.1467 65.6153 80.5009 65.5356 81.0316L64.9471 84.9722C64.9091 85.2271 64.9584 85.4891 65.0838 85.7014C65.2101 85.9137 65.4012 86.058 65.6173 86.1029L68.5885 86.721C68.6369 87.8075 68.7972 88.8587 69.0552 89.8597L66.4438 91.6387C66.2538 91.7676 66.1153 91.9812 66.0583 92.231C66.0016 92.481 66.0316 92.7473 66.141 92.9716L67.8359 96.4369C67.9451 96.6611 68.1261 96.8245 68.3378 96.8915C68.4082 96.9138 68.48 96.9247 68.5518 96.9247C68.6957 96.9247 68.8382 96.8806 68.9652 96.794L71.5787 95.0128C72.1933 95.7901 72.8871 96.4788 73.6453 97.0613L72.6134 100.408C72.5386 100.651 72.5483 100.919 72.6411 101.154C72.7338 101.389 72.9015 101.57 73.1075 101.658L76.2926 103.027C76.384 103.066 76.4799 103.086 76.5756 103.086C76.6949 103.086 76.8149 103.055 76.9254 102.994C77.1242 102.885 77.2775 102.687 77.3525 102.444L78.3843 99.0973C78.8266 99.1605 79.2769 99.1932 79.7337 99.1932C80.1905 99.1932 80.6407 99.16 81.0831 99.0973L82.1151 102.444C82.1898 102.687 82.3438 102.885 82.5421 102.994C82.6525 103.055 82.772 103.086 82.892 103.086C82.9874 103.086 83.0833 103.066 83.1747 103.027L86.3603 101.658C86.5658 101.57 86.7338 101.388 86.8263 101.154C86.9191 100.919 86.929 100.651 86.854 100.408L85.822 97.0618C86.5796 96.4794 87.2734 95.7901 87.8887 95.0134L90.5022 96.7945C90.6289 96.8806 90.7717 96.9253 90.9155 96.9253C90.9871 96.9253 91.0596 96.9138 91.1296 96.892C91.3414 96.8251 91.522 96.6611 91.6314 96.4374L93.3264 92.9716C93.4358 92.7478 93.4657 92.481 93.409 92.231C93.3521 91.9817 93.2136 91.7681 93.0236 91.6387L90.4126 89.8602C90.6706 88.859 90.8304 87.8078 90.8788 86.7215L93.85 86.1032C94.0662 86.0582 94.258 85.914 94.3836 85.7016C94.5139 85.4891 94.5632 85.2271 94.5252 84.9722ZM79.7364 91.2343C77.2251 91.2343 75.1888 88.8308 75.1888 85.8664C75.1888 82.902 77.2253 80.4988 79.7364 80.4988C82.2479 80.4988 84.2842 82.902 84.2842 85.8664C84.2842 88.8308 82.2479 91.2343 79.7364 91.2343Z" fill="#2EA1FF" stroke="#2EA1FF" stroke-width="0.00800002"/>
<path d="M37.0773 58.2944C37.0773 57.0317 36.4503 55.8718 35.4798 55.3398L26.5974 50.4686L35.48 45.5968C36.4503 45.0643 37.0773 43.9047 37.0773 42.6425V42.5577C37.0773 41.439 36.6003 40.412 35.802 39.8117C35.3603 39.4788 34.8458 39.3026 34.3148 39.3026C33.9145 39.3026 33.5126 39.4065 33.1531 39.6037L18.9526 47.3981C17.9825 47.9306 17.356 49.0903 17.356 50.3522V50.5852C17.356 51.8455 17.9823 53.0044 18.9528 53.5395L33.1547 61.3348C33.5219 61.5354 33.9129 61.6372 34.3168 61.6372C34.8431 61.6372 35.356 61.4607 35.802 61.1259C36.6007 60.5233 37.0775 59.497 37.0775 58.3797L37.0773 58.2944Z" fill="#2EA1FF" stroke="#2EA1FF" stroke-width="0.00800002"/>
<path d="M51.0885 31.3604C50.5705 30.5234 49.7373 30.0238 48.8595 30.0238H48.7888C47.5835 30.0238 46.5267 30.9339 46.1595 32.2867L36.8033 66.5044C36.5369 67.4923 36.6869 68.5805 37.2042 69.4172C37.7222 70.2537 38.5554 70.7536 39.4332 70.7536H39.5041C40.709 70.7536 41.7651 69.8432 42.1318 68.4907L51.4869 34.2756C51.7558 33.2885 51.6067 32.1987 51.0885 31.3604Z" fill="#2EA1FF" stroke="#2EA1FF" stroke-width="0.00800002"/>
<path d="M69.3396 47.3978L55.1388 39.6034C54.7804 39.4068 54.3793 39.3029 53.979 39.3029C53.4481 39.3029 52.9335 39.4785 52.492 39.8109C51.6924 40.4123 51.2153 41.439 51.2153 42.5577V42.6425C51.2153 43.9036 51.8419 45.0635 52.8131 45.5981L61.6952 50.4688L52.8128 55.3398C51.8423 55.8718 51.2153 57.0316 51.2153 58.2944V58.3796C51.2153 59.497 51.6924 60.523 52.4916 61.1262C52.936 61.4604 53.4493 61.6371 53.9763 61.6371C54.3797 61.6371 54.7703 61.5354 55.14 61.334L69.3414 53.5387C70.3111 53.0049 70.9371 51.8458 70.9371 50.5855V50.3524C70.9364 49.0902 70.3099 47.9306 69.3396 47.3978Z" fill="#2EA1FF" stroke="#2EA1FF" stroke-width="0.00800002"/>
</svg>
