<svg width="43" height="43" viewBox="0 0 43 43" fill="none" xmlns="http://www.w3.org/2000/svg">
<path d="M14.2945 21.4462C14.2945 17.4982 17.4932 14.2969 21.44 14.2969C25.3869 14.2969 28.5873 17.4982 28.5873 21.4462C28.5873 25.3942 25.3869 28.5955 21.44 28.5955C17.4932 28.5955 14.2945 25.3942 14.2945 21.4462ZM10.4308 21.4462C10.4308 27.5284 15.3596 32.4586 21.44 32.4586C27.5204 32.4586 32.4492 27.5284 32.4492 21.4462C32.4492 15.3641 27.5204 10.4338 21.44 10.4338C15.3596 10.4338 10.4308 15.3641 10.4308 21.4462ZM30.3123 9.9972C30.3121 10.5062 30.4628 11.0038 30.7453 11.4272C31.0278 11.8505 31.4295 12.1805 31.8996 12.3755C32.3696 12.5705 32.8869 12.6216 33.386 12.5225C33.8851 12.4234 34.3436 12.1785 34.7036 11.8187C35.0636 11.459 35.3088 11.0005 35.4082 10.5013C35.5077 10.0021 35.457 9.48466 35.2624 9.01433C35.0679 8.544 34.7383 8.14193 34.3153 7.85898C33.8923 7.57602 33.395 7.42489 32.8861 7.42468H32.8851C32.203 7.425 31.5489 7.6961 31.0665 8.17845C30.5841 8.66079 30.3129 9.31493 30.3123 9.9972ZM12.7783 38.9029C10.6879 38.8077 9.5518 38.4594 8.79676 38.1652C7.79577 37.7754 7.08156 37.3111 6.33064 36.561C5.57973 35.8109 5.11491 35.0972 4.72693 34.0959C4.4326 33.341 4.08441 32.2042 3.98939 30.1133C3.88545 27.8526 3.8647 27.1736 3.8647 21.4464C3.8647 15.7192 3.88716 15.042 3.98939 12.7795C4.08458 10.6886 4.43534 9.55404 4.72693 8.7969C5.11662 7.79562 5.58076 7.0812 6.33064 6.33007C7.08053 5.57894 7.79405 5.11398 8.79676 4.72589C9.55145 4.43148 10.6879 4.08319 12.7783 3.98814C15.0382 3.88417 15.7171 3.86341 21.44 3.86341C27.163 3.86341 27.8426 3.88589 30.1044 3.98814C32.1947 4.08336 33.329 4.43422 34.0859 4.72589C35.0869 5.11398 35.8011 5.57997 36.552 6.33007C37.3029 7.08017 37.766 7.79562 38.1557 8.7969C38.4501 9.55181 38.7982 10.6886 38.8933 12.7795C38.9972 15.042 39.018 15.7192 39.018 21.4464C39.018 27.1736 38.9972 27.8508 38.8933 30.1133C38.7981 32.2042 38.4482 33.3407 38.1557 34.0959C37.766 35.0972 37.3019 35.8116 36.552 36.561C35.8021 37.3104 35.0869 37.7754 34.0859 38.1652C33.3312 38.4596 32.1947 38.8079 30.1044 38.9029C27.8444 39.0069 27.1656 39.0277 21.44 39.0277C15.7145 39.0277 15.0375 39.0069 12.7783 38.9029ZM12.6007 0.129878C10.3183 0.23385 8.75869 0.595862 7.39664 1.12601C5.98606 1.67349 4.79193 2.40798 3.59867 3.59971C2.4054 4.79143 1.67301 5.98779 1.12569 7.39878C0.59569 8.76207 0.233782 10.3213 0.129841 12.6044C0.0241844 14.8911 0 15.6221 0 21.4462C0 27.2703 0.0241844 28.0014 0.129841 30.2881C0.233782 32.5713 0.59569 34.1304 1.12569 35.4937C1.67301 36.9038 2.40557 38.1015 3.59867 39.2928C4.79176 40.484 5.98606 41.2174 7.39664 41.7664C8.76126 42.2966 10.3183 42.6586 12.6007 42.7626C14.888 42.8666 15.6176 42.8925 21.44 42.8925C27.2625 42.8925 27.9933 42.8683 30.2793 42.7626C32.5619 42.6586 34.1205 42.2966 35.4834 41.7664C36.8932 41.2174 38.0881 40.4845 39.2814 39.2928C40.4747 38.101 41.2055 36.9038 41.7544 35.4937C42.2844 34.1304 42.648 32.5712 42.7502 30.2881C42.8542 27.9997 42.8784 27.2703 42.8784 21.4462C42.8784 15.6221 42.8542 14.8911 42.7502 12.6044C42.6463 10.3211 42.2844 8.76121 41.7544 7.39878C41.2055 5.98864 40.4728 4.79332 39.2814 3.59971C38.09 2.4061 36.8932 1.67349 35.4852 1.12601C34.1205 0.595862 32.5618 0.232134 30.2811 0.129878C27.995 0.025907 27.2642 0 21.4418 0C15.6193 0 14.888 0.0241914 12.6007 0.129878Z" fill="white"/>
</svg>
