<svg width="36" height="35" viewBox="0 0 36 35" fill="none" xmlns="http://www.w3.org/2000/svg">
<path d="M8.14186 34.3132V11.1608H0.453195V34.3132H8.14267H8.14186ZM4.29913 8.00024C6.97977 8.00024 8.64865 6.22241 8.64865 4.00062C8.59847 1.72821 6.97977 0 4.35011 0C1.71865 0 0 1.72821 0 4.00042C0 6.22221 1.66827 8.00004 4.24876 8.00004H4.29853L4.29913 8.00024ZM12.3976 34.3132H20.0857V21.3852C20.0857 20.6942 20.1359 20.0013 20.339 19.5077C20.8946 18.1246 22.1596 16.6929 24.2841 16.6929C27.0655 16.6929 28.1788 18.8159 28.1788 21.9286V34.3132H35.8667V21.0383C35.8667 13.9272 32.0741 10.618 27.0157 10.618C22.8685 10.618 21.0471 12.938 20.0351 14.5182H20.0863V11.1616H12.398C12.4984 13.3335 12.3974 34.314 12.3974 34.314L12.3976 34.3132Z" fill="white"/>
</svg>
