<svg width="37" height="50" viewBox="0 0 37 50" fill="none" xmlns="http://www.w3.org/2000/svg">
<path d="M16.1201 0.167211C8.21719 1.09474 0.342196 7.8169 0.0171663 17.4193C-0.187138 23.2822 1.39622 27.6807 6.70348 28.9158C9.00655 24.6442 5.96056 23.7021 5.48695 20.6119C3.54141 7.9487 19.3796 -0.687094 27.6679 8.15374C33.4023 14.2754 29.6273 33.1092 20.3779 31.1516C11.5186 29.2819 24.7148 14.2901 17.643 11.3464C11.8947 8.95434 8.83939 18.6641 11.565 23.4873C9.96771 31.7814 6.52704 39.597 7.92002 50C12.4379 46.5535 13.9609 39.9534 15.21 33.0701C17.4805 34.52 18.6924 36.0285 21.5898 36.2628C32.274 37.1317 38.2406 25.0494 36.7826 13.9044C35.4872 4.02378 26.1077 -1.00441 16.1201 0.167211Z" fill="white"/>
</svg>
