<svg width="106" height="131" viewBox="0 0 106 131" fill="none" xmlns="http://www.w3.org/2000/svg">
<path d="M96.6212 109.012H9.535C5.38007 109.012 2 105.042 2 100.161V92.4168C2 91.7116 2.48665 91.1402 3.08677 91.1402H103.069C103.67 91.1402 104.156 91.7116 104.156 92.4168V100.161C104.156 105.042 100.776 109.012 96.6212 109.012ZM4.17354 93.6933V100.161C4.17354 103.634 6.57856 106.459 9.535 106.459H96.6215C99.5779 106.459 101.983 103.634 101.983 100.161V93.6933H4.17354Z" fill="#2EA1FF" stroke="#2EA1FF" stroke-width="2.36"/>
<path d="M103.069 93.6933H3.08677C2.48665 93.6933 2 93.1219 2 92.4167V35.3545C2 29.5122 6.04647 24.7591 11.0202 24.7591H48.8402C49.4403 24.7591 49.9269 25.3307 49.9269 26.0357C49.9269 26.7406 49.4403 27.3122 48.8402 27.3122H11.0202C7.24496 27.3122 4.17354 30.92 4.17354 35.3545V91.1402H101.983V35.3545C101.983 30.92 98.9113 27.3122 95.1361 27.3122H70.3571C69.7568 27.3122 69.2703 26.7406 69.2703 26.0357C69.2703 25.3307 69.7568 24.7591 70.3571 24.7591H95.1361C100.11 24.7591 104.156 29.5122 104.156 35.3545V92.4167C104.156 93.1219 103.67 93.6933 103.069 93.6933Z" fill="#2EA1FF" stroke="#2EA1FF" stroke-width="2.36"/>
<path d="M36.0175 55.0114C35.7334 55.0114 35.4559 54.8804 35.2489 54.6376C34.9662 54.3055 34.8616 53.8181 34.9766 53.3682L39.5873 35.3151C39.6391 35.1127 39.7325 34.9286 39.8597 34.7792L65.219 4.99123C66.8611 3.06235 69.0444 2 71.3664 2C73.6888 2 75.8719 3.06235 77.514 4.99123C79.1564 6.92011 80.0608 9.48472 80.0608 12.2125C80.0608 14.9405 79.1564 17.5048 77.514 19.434L52.1552 49.2217C52.028 49.3711 51.8713 49.4811 51.6989 49.5416L36.3298 54.9575C36.227 54.994 36.1218 55.0114 36.0175 55.0114ZM41.5902 36.3568L37.6383 51.831L50.8119 47.1887L75.9773 17.6284C77.2089 16.1815 77.8872 14.2583 77.8872 12.2125C77.8872 10.1667 77.2089 8.24314 75.9773 6.79654C74.7458 5.34969 73.1083 4.55312 71.3664 4.55312C69.6247 4.55312 67.9872 5.34995 66.7557 6.79654L41.5902 36.3568Z" fill="#2EA1FF" stroke="#2EA1FF" stroke-width="2.36"/>
<path d="M44.4701 43.2289C43.2177 43.2289 41.9655 42.669 41.012 41.5492C39.1054 39.3094 39.1054 35.665 41.012 33.4252C41.4363 32.9268 42.1244 32.9268 42.5489 33.4252C42.9734 33.9238 42.9734 34.7319 42.5489 35.2305C41.4895 36.4749 41.4895 38.4995 42.5489 39.7439C43.6083 40.9883 45.3319 40.9883 46.3913 39.7439C46.816 39.2455 47.5039 39.2458 47.9282 39.7439C48.3527 40.2425 48.3527 41.0508 47.9282 41.5492C46.9749 42.669 45.7225 43.2289 44.4701 43.2289Z" fill="#2EA1FF" stroke="#2EA1FF" stroke-width="2.36"/>
<path d="M49.8499 49.5505C48.5436 49.5505 47.3156 48.9528 46.3918 47.868C45.4681 46.7831 44.9595 45.3404 44.9595 43.806C44.9595 42.2715 45.4683 40.8288 46.3918 39.7439L59.9173 23.8567C60.3414 23.3583 61.03 23.3583 61.454 23.8567C61.8785 24.3553 61.8785 25.1636 61.454 25.662L47.9287 41.5493C47.4156 42.152 47.1328 42.9535 47.1328 43.806C47.1328 44.6582 47.4154 45.4599 47.9287 46.0624C48.4419 46.6652 49.1242 46.9974 49.8497 46.9974C50.5755 46.9974 51.2577 46.6654 51.7709 46.0624C52.1952 45.564 52.8835 45.564 53.3078 46.0624C53.7323 46.561 53.7323 47.3691 53.308 47.8677C52.3845 48.9528 51.1562 49.5505 49.8499 49.5505Z" fill="#2EA1FF" stroke="#2EA1FF" stroke-width="2.36"/>
<path d="M73.6724 23.4185C73.3944 23.4185 73.116 23.2939 72.9041 23.0447L62.1455 10.4073C61.721 9.90867 61.721 9.10036 62.1455 8.60199C62.5696 8.10362 63.2582 8.10362 63.6822 8.60199L74.4408 21.2394C74.8653 21.738 74.8653 22.5464 74.4408 23.0447C74.2289 23.2939 73.9504 23.4185 73.6724 23.4185Z" fill="#2EA1FF" stroke="#2EA1FF" stroke-width="2.36"/>
<path d="M76.9869 80.9277H59.5986C56.0031 80.9277 53.078 77.4918 53.078 73.2684C53.078 69.045 56.0031 65.609 59.5986 65.609H83.5075C85.9045 65.609 87.8546 63.3184 87.8546 60.5028V60.1178C87.8546 57.3022 85.9045 55.0116 83.5075 55.0116H36.0174C35.4173 55.0116 34.9307 54.4399 34.9307 53.735C34.9307 53.0301 35.4173 52.4584 36.0174 52.4584H83.5075C87.103 52.4584 90.0281 55.8944 90.0281 60.1178V60.5028C90.0281 64.7262 87.103 68.1622 83.5075 68.1622H59.5986C57.2016 68.1622 55.2515 70.4528 55.2515 73.2684C55.2515 76.084 57.2016 78.3746 59.5986 78.3746H76.9869C77.5872 78.3746 78.0736 78.946 78.0736 79.6512C78.0736 80.3564 77.5872 80.9277 76.9869 80.9277Z" fill="#2EA1FF" stroke="#2EA1FF" stroke-width="2.36"/>
<path d="M35.6898 82.2043H3.08677C2.48666 82.2043 2 81.6329 2 80.9278C2 80.2226 2.48666 79.6512 3.08677 79.6512H35.6898C36.2899 79.6512 36.7766 80.2226 36.7766 80.9278C36.7766 81.6329 36.2899 82.2043 35.6898 82.2043Z" fill="#2EA1FF" stroke="#2EA1FF" stroke-width="2.36"/>
<path d="M35.6898 74.5449H3.08677C2.48666 74.5449 2 73.9736 2 73.2684C2 72.5632 2.48666 71.9918 3.08677 71.9918H35.6898C36.2899 71.9918 36.7766 72.5632 36.7766 73.2684C36.7766 73.9736 36.2899 74.5449 35.6898 74.5449Z" fill="#2EA1FF" stroke="#2EA1FF" stroke-width="2.36"/>
<path d="M35.6898 66.8856H3.08677C2.48666 66.8856 2 66.3142 2 65.609C2 64.9041 2.48666 64.3325 3.08677 64.3325H35.6898C36.2899 64.3325 36.7766 64.9041 36.7766 65.609C36.7766 66.3142 36.2899 66.8856 35.6898 66.8856Z" fill="#2EA1FF" stroke="#2EA1FF" stroke-width="2.36"/>
<path d="M65.0328 124.331H41.1239C40.5238 124.331 40.0371 123.759 40.0371 123.054V107.735C40.0371 107.03 40.5238 106.459 41.1239 106.459H65.0328C65.6331 106.459 66.1196 107.03 66.1196 107.735V123.054C66.1196 123.759 65.6331 124.331 65.0328 124.331ZM42.2106 121.778H63.946V109.012H42.2106V121.778Z" fill="#2EA1FF" stroke="#2EA1FF" stroke-width="2.36"/>
<path d="M59.5987 124.331H46.5575C45.9574 124.331 45.4707 123.759 45.4707 123.054V107.735C45.4707 107.03 45.9574 106.459 46.5575 106.459H59.5987C60.199 106.459 60.6855 107.03 60.6855 107.735V123.054C60.6855 123.759 60.199 124.331 59.5987 124.331ZM47.6442 121.778H58.5119V109.012H47.6442V121.778Z" fill="#2EA1FF" stroke="#2EA1FF" stroke-width="2.36"/>
<path d="M68.2929 129.437H37.8633C36.0656 129.437 34.603 127.719 34.603 125.607C34.603 123.496 36.0656 121.778 37.8633 121.778H68.2929C70.0906 121.778 71.5532 123.496 71.5532 125.607C71.5532 127.719 70.0906 129.437 68.2929 129.437ZM37.8633 124.331C37.2641 124.331 36.7766 124.903 36.7766 125.607C36.7766 126.311 37.2641 126.884 37.8633 126.884H68.2929C68.8921 126.884 69.3796 126.311 69.3796 125.607C69.3796 124.903 68.8921 124.331 68.2929 124.331H37.8633Z" fill="#2EA1FF" stroke="#2EA1FF" stroke-width="2.36"/>
</svg>
